<?xml version="1.0" encoding="utf-8"?>
<!-- Generator: Adobe Illustrator 24.3.0, SVG Export Plug-In . SVG Version: 6.00 Build 0)  -->
<svg version="1.1" id="Layer_1" xmlns="http://www.w3.org/2000/svg" xmlns:xlink="http://www.w3.org/1999/xlink" x="0px" y="0px"
	 viewBox="0 0 141.73 141.73" style="enable-background:new 0 0 141.73 141.73;" xml:space="preserve">
<path d="M135.81,57.55C115.92,48.62,96,39.75,76.03,31c-1.35-0.59-3.29-0.58-4.71-0.1c-3.78,1.27-7.42,2.95-11.12,4.46
	C42.1,42.75,23.98,50.12,5.91,57.6c-1.14,0.47-2.72,1.88-2.66,2.75c0.08,1.11,1.43,2.53,2.58,3.08c7.07,3.34,14.22,6.52,21.4,9.65
	c1.7,0.74,2.36,1.72,2.33,3.58c-0.1,5.83,0.07,11.67-0.09,17.49c-0.09,3.47,1.22,6.11,4.19,7.64c3.01,1.55,6.15,3.06,9.41,3.89
	c16.24,4.1,32.68,4.21,49.09,1.37c5.17-0.89,10.21-2.92,15.09-4.95c3.27-1.36,4.84-4.23,4.68-8.08c-0.22-5.49-0.09-10.99-0.02-16.49
	c0.01-0.84,0.21-2.14,0.75-2.44c3.31-1.82,6.75-3.42,10.39-5.2c0.18,0.94,0.36,1.4,0.36,1.87c0.02,8.08,0.07,16.16-0.04,24.24
	c-0.01,0.86-0.8,1.92-1.53,2.52c-2.05,1.7-3.33,3.74-3.37,6.41c-0.06,4.75-0.01,9.5-0.03,14.25c-0.01,2.17,1.03,3.23,3.2,3.22
	c3.17-0.01,6.33,0.04,9.5,0c2.74-0.04,3.56-0.88,3.58-3.63c0.03-4.42,0.03-8.83-0.01-13.25c-0.03-3.13-1.33-5.53-3.98-7.35
	c-0.83-0.57-1.57-1.92-1.59-2.93c-0.14-6.91,0.36-13.86-0.21-20.73c-0.47-5.74,1.02-9.44,6.84-10.82c0.08-0.02,0.17-0.06,0.22-0.12
	c0.9-1.07,2.42-2.11,2.49-3.24C138.53,59.43,136.95,58.07,135.81,57.55z M104.14,97.65c-3.71,1.61-7.57,3.17-11.53,3.82
	c-7.2,1.19-14.51,1.71-21.77,2.51c-10.25-0.56-20.35-1.28-30.07-4.68c-0.94-0.33-1.94-0.63-2.72-1.21c-0.95-0.7-1.71-1.66-2.55-2.51
	c0.81-0.78,1.5-1.84,2.46-2.28c2.42-1.08,4.89-2.19,7.46-2.74c18.35-3.93,36.65-4.13,54.8,1.23c1.34,0.4,2.64,1.03,3.86,1.73
	C106.75,95.05,106.88,96.46,104.14,97.65z M129.3,105.51c0.04,3.24-0.04,6.47,0.02,9.71c0.04,2.27-1.53,1.87-2.91,1.94
	c-1.49,0.07-2.66-0.11-2.58-2.05c0.07-1.66,0.01-3.32,0.01-4.98c0-1.49-0.02-2.99,0.01-4.48c0.04-1.82,0.86-3.14,2.79-3.12
	C128.42,102.55,129.28,103.78,129.3,105.51z M112.31,69.09c-0.21-0.65-0.43-0.97-0.38-1.23c0.76-4.1-1.81-5.76-5-7.18
	c-13.02-5.77-26.74-7.23-40.78-6.86c-2.33,0.06-4.67,0.17-6.97,0.5c-0.71,0.1-1.92,1.36-1.85,1.48c0.75,1.3-0.62,3.96,2.31,3.88
	c0.58-0.02,1.16-0.14,1.74-0.19c14.37-1.13,28.43,0.04,42.02,5.26c2.07,0.79,2.99,1.86,2.92,4.2c-0.18,5.41-0.05,10.83-0.06,16.24
	c0,0.88-0.1,1.76-0.15,2.58c-23.71-7.2-47.14-7.28-70.97,0.16c0-2.11,0-4.08,0-6.05c0-4.41,0.1-8.83-0.05-13.24
	c-0.06-2.01,0.72-3.11,2.52-3.73c2.28-0.78,4.49-1.95,6.83-2.33c2.84-0.47,2.87-1.89,2.14-4c-0.19-0.54-0.31-1.1-0.55-1.93
	c-5.61,1.35-11.01,2.97-15.49,6.55c-1.04,0.83-1.06,2.93-1.66,4.76c-5.15-2.29-10.26-4.57-15.99-7.13c1.13-0.6,1.69-0.97,2.31-1.22
	c18.85-7.74,37.7-15.49,56.59-23.15c0.96-0.39,2.37-0.44,3.3-0.03c17.44,7.68,34.83,15.46,52.23,23.22
	c0.49,0.22,0.93,0.55,1.95,1.16C123.38,63.68,117.94,66.34,112.31,69.09z"/>
</svg>
