<?xml version="1.0" encoding="utf-8"?>
<!-- Generator: Adobe Illustrator 24.3.0, SVG Export Plug-In . SVG Version: 6.00 Build 0)  -->
<svg version="1.1" id="Layer_1" xmlns="http://www.w3.org/2000/svg" xmlns:xlink="http://www.w3.org/1999/xlink" x="0px" y="0px"
	 viewBox="0 0 141.73 141.73" style="enable-background:new 0 0 141.73 141.73;" xml:space="preserve">
<style type="text/css">
	.st0{fill:#FFFFFF;}
</style>
<g>
	<g>
		<path class="st0" d="M17.94,59.65c1.03,0.28,1.77,0.47,2.49,0.68c5.46,1.63,10.9,3.33,16.38,4.87c1.13,0.32,1.44,0.75,1.43,1.86
			c-0.05,4.67,0.09,9.34-0.07,14.01c-0.07,2.17,0.86,3.35,2.69,4.1c0.9,0.37,1.8,0.82,2.75,1c4.42,0.84,8.82,1.87,13.28,2.33
			c13.07,1.35,26.13,1.13,39.09-1.29c2.38-0.44,4.7-1.3,6.99-2.11c1.8-0.64,2.69-1.88,2.59-3.99c-0.17-3.47-0.19-6.95,0-10.42
			c0.12-2.25-0.81-3.6-2.77-4.18c-3.26-0.98-6.54-2.13-9.89-2.55c-6.24-0.78-12.53-1.1-18.81-1.56c-1.21-0.09-2.25-0.33-2.22-1.77
			c0.03-1.3,0.94-1.69,2.13-1.68c7.84,0.03,15.63,0.6,23.29,2.29c2.74,0.6,5.6,1.12,7.7,3.21c0.83,0.83,1.54,0.93,2.59,0.61
			c6.95-2.12,13.93-4.18,20.89-6.27c2.13-0.64,4.27-1.24,6.38-1.96c0.47-0.16,0.81-0.72,1.21-1.1c-0.38-0.32-0.73-0.74-1.17-0.95
			c-0.53-0.25-1.14-0.34-1.72-0.48c-18.82-4.78-37.64-9.58-56.48-14.31c-2-0.5-4.26-1.23-6.14-0.78
			C56.1,42.67,41.71,46.39,27.3,50.04c-6.1,1.55-12.2,3.1-18.29,4.7c-0.5,0.13-0.9,0.63-1.35,0.96c0.44,0.4,0.82,0.95,1.33,1.16
			c1.15,0.46,2.36,0.83,3.58,1.09c1.5,0.33,2.08,1.06,2.06,2.69c-0.09,6.89-0.01,13.79-0.08,20.69c-0.01,0.83-0.39,1.76-0.87,2.47
			c-0.98,1.47-0.96,2.86,0.02,4.36c0.41,0.63,0.67,1.6,0.52,2.31c-0.71,3.29-1.59,6.54-2.4,9.8c-0.17,0.71-0.27,1.44-0.44,2.39
			c3.39-1.13,6.5-2.17,9.75-3.25c-1.02-3.08-1.92-5.97-2.93-8.82c-0.34-0.97-0.37-1.66,0.39-2.49c1.25-1.37,1.13-2.8,0.1-4.29
			c-0.45-0.66-0.84-1.53-0.84-2.31c-0.07-6.68-0.04-13.36-0.04-20.03C17.82,60.94,17.89,60.42,17.94,59.65z"/>
		<path d="M17.94,59.65c-0.05,0.77-0.12,1.29-0.12,1.81c-0.01,6.68-0.03,13.36,0.04,20.03c0.01,0.78,0.39,1.65,0.84,2.31
			c1.03,1.49,1.15,2.92-0.1,4.29c-0.75,0.83-0.73,1.53-0.39,2.49c1.01,2.85,1.91,5.74,2.93,8.82c-3.24,1.08-6.36,2.12-9.75,3.25
			c0.17-0.95,0.27-1.68,0.44-2.39c0.8-3.27,1.69-6.52,2.4-9.8c0.15-0.71-0.11-1.68-0.52-2.31c-0.98-1.51-1-2.89-0.02-4.36
			c0.47-0.71,0.86-1.64,0.87-2.47c0.07-6.89-0.02-13.79,0.08-20.69c0.02-1.63-0.55-2.36-2.06-2.69c-1.22-0.27-2.42-0.63-3.58-1.09
			c-0.52-0.21-0.89-0.76-1.33-1.16c0.45-0.33,0.85-0.83,1.35-0.96c6.09-1.6,12.19-3.15,18.29-4.7c14.41-3.65,28.8-7.37,43.26-10.83
			c1.88-0.45,4.14,0.28,6.14,0.78c18.84,4.73,37.66,9.53,56.48,14.31c0.58,0.15,1.19,0.23,1.72,0.48c0.44,0.21,0.78,0.63,1.17,0.95
			c-0.4,0.38-0.73,0.94-1.21,1.1c-2.1,0.72-4.25,1.32-6.38,1.96c-6.96,2.08-13.94,4.15-20.89,6.27c-1.05,0.32-1.76,0.22-2.59-0.61
			c-2.1-2.09-4.97-2.61-7.7-3.21c-7.67-1.69-15.46-2.26-23.29-2.29c-1.19,0-2.1,0.38-2.13,1.68c-0.03,1.44,1.01,1.68,2.22,1.77
			c6.27,0.47,12.57,0.79,18.81,1.56c3.35,0.42,6.63,1.57,9.89,2.55c1.95,0.59,2.89,1.94,2.77,4.18c-0.19,3.46-0.17,6.95,0,10.42
			c0.1,2.1-0.79,3.35-2.59,3.99c-2.29,0.81-4.61,1.67-6.99,2.11c-12.96,2.41-26.02,2.64-39.09,1.29c-4.46-0.46-8.87-1.49-13.28-2.33
			c-0.94-0.18-1.84-0.64-2.75-1c-1.83-0.74-2.77-1.92-2.69-4.1c0.16-4.66,0.01-9.34,0.07-14.01c0.01-1.11-0.3-1.54-1.43-1.86
			c-5.48-1.54-10.92-3.24-16.38-4.87C19.71,60.12,18.97,59.93,17.94,59.65z"/>
	</g>
</g>
</svg>
